<?xml version="1.0" encoding="UTF-8" standalone="no"?>
<svg
   xmlns:dc="http://purl.org/dc/elements/1.1/"
   xmlns:cc="http://creativecommons.org/ns#"
   xmlns:rdf="http://www.w3.org/1999/02/22-rdf-syntax-ns#"
   xmlns:svg="http://www.w3.org/2000/svg"
   xmlns="http://www.w3.org/2000/svg"
   xmlns:sodipodi="http://sodipodi.sourceforge.net/DTD/sodipodi-0.dtd"
   xmlns:inkscape="http://www.inkscape.org/namespaces/inkscape"
   height="512pt"
   viewBox="-10 0 512 512.001"
   width="512pt"
   version="1.1"
   id="svg16"
   sodipodi:docname="discussion.svg"
   inkscape:version="1.0.2 (394de47547, 2021-03-26)">
  <metadata
     id="metadata22">
    <rdf:RDF>
      <cc:Work
         rdf:about="">
        <dc:format>image/svg+xml</dc:format>
        <dc:type
           rdf:resource="http://purl.org/dc/dcmitype/StillImage" />
      </cc:Work>
    </rdf:RDF>
  </metadata>
  <defs
     id="defs20" />
  <sodipodi:namedview
     pagecolor="#ffffff"
     bordercolor="#666666"
     borderopacity="1"
     objecttolerance="10"
     gridtolerance="10"
     guidetolerance="10"
     inkscape:pageopacity="0"
     inkscape:pageshadow="2"
     inkscape:window-width="1920"
     inkscape:window-height="1016"
     id="namedview18"
     showgrid="false"
     inkscape:zoom="1.2626953"
     inkscape:cx="341.33333"
     inkscape:cy="341.33333"
     inkscape:window-x="0"
     inkscape:window-y="27"
     inkscape:window-maximized="1"
     inkscape:current-layer="svg16" />
  <g
     fill-rule="evenodd"
     id="g14"
     style="fill:#ffffff">
    <path
       d="m482.5 102.382812h-51.378906v-70.53125c0-17.5625-14.257813-31.851562-31.785156-31.851562h-35.101563c-17.527344 0-31.785156 14.289062-31.785156 31.851562v70.535157h-322.449219c-5.523438 0-10 4.476562-10 10v91.25c0 5.519531 4.476562 10 10 10s10-4.480469 10-10v-81.25h312.449219v242.5h-176.191407c-2.652343 0-5.195312 1.054687-7.070312 2.929687l-76.6875 76.683594v-69.613281c0-5.523438-4.476562-10-10-10h-42.5v-81.25c0-5.523438-4.476562-10-10-10s-10 4.476562-10 10v91.25c0 5.519531 4.476562 10 10 10h42.5v83.753906c0 4.046875 2.4375 7.691406 6.171875 9.238281 1.238281.515625 2.539063.761719 3.824219.761719 2.605468 0 5.164062-1.015625 7.074218-2.925781l90.828126-90.828125h172.050781v49.046875.003906c0 .40625.03125.796875.078125 1.183594.011718.105468.027344.203125.046875.308594.046875.304687.101562.605468.175781.902343.027344.097657.050781.195313.078125.292969.101563.363281.21875.722656.359375 1.066406.007812.023438.011719.042969.023438.0625.15625.378906.339843.746094.542968 1.101563.011719.027343.023438.054687.035156.078125l39.335938 68.070312c1.789062 3.09375 5.085938 4.996094 8.660156 4.996094 3.570313 0 6.871094-1.902344 8.65625-4.996094l39.335938-68.070312c.015625-.023438.023437-.050782.039062-.078125.199219-.351563.382813-.71875.542969-1.101563.007813-.019531.011719-.042968.019531-.0625.140625-.347656.257813-.703125.359375-1.066406.027344-.097656.050781-.195312.078125-.292969.070313-.296875.128906-.597656.175782-.902343.015624-.101563.035156-.203126.046874-.308594.046876-.386719.078126-.777344.078126-1.179688 0 0 0-.003906 0-.007812v-49.046875h51.382812c5.519531 0 10-4.480469 10-10v-91.25c0-5.523438-4.480469-10-10-10-5.523438 0-10 4.476562-10 10v81.25h-41.382812v-242.503907h41.382812v81.253907c0 5.519531 4.476562 10 10 10 5.519531 0 10-4.480469 10-10v-91.253907c0-5.523437-4.476562-10-10-10zm-130.050781-24.394531h19.335937v345.941407h-19.335937zm29.335937 404.027344-22.007812-38.085937h44.015625zm29.335938-58.085937h-19.335938v-345.941407h19.335938zm0-365.941407h-58.671875v-26.136719c0-6.535156 5.285156-11.851562 11.785156-11.851562h35.101563c6.496093 0 11.785156 5.316406 11.785156 11.851562zm0 0"
       id="path2"
       style="fill:#ffffff" />
    <path
       d="m66.449219 312.023438h219.550781c5.523438 0 10-4.480469 10-10 0-5.523438-4.476562-10-10-10h-219.550781c-5.523438 0-10 4.476562-10 10 0 5.519531 4.476562 10 10 10zm0 0"
       id="path4"
       style="fill:#ffffff" />
    <path
       d="m66.449219 195.246094h219.550781c5.523438 0 10-4.476563 10-10 0-5.519532-4.476562-10-10-10h-219.550781c-5.523438 0-10 4.480468-10 10 0 5.523437 4.476562 10 10 10zm0 0"
       id="path6"
       style="fill:#ffffff" />
    <path
       d="m66.449219 253.636719h219.550781c5.523438 0 10-4.480469 10-10 0-5.523438-4.476562-10-10-10h-219.550781c-5.523438 0-10 4.476562-10 10 0 5.519531 4.476562 10 10 10zm0 0"
       id="path8"
       style="fill:#ffffff" />
    <path
       d="m10 253.636719c5.507812 0 10-4.492188 10-10 0-5.507813-4.492188-10-10-10s-10 4.492187-10 10c0 5.507812 4.492188 10 10 10zm0 0"
       id="path10"
       style="fill:#ffffff" />
    <path
       d="m482.5 233.636719c-5.507812 0-10 4.492187-10 10 0 5.507812 4.492188 10 10 10s10-4.492188 10-10c0-5.507813-4.492188-10-10-10zm0 0"
       id="path12"
       style="fill:#ffffff" />
  </g>
</svg>
