<?xml version="1.0" encoding="UTF-8" standalone="no"?>
<svg
   xmlns:dc="http://purl.org/dc/elements/1.1/"
   xmlns:cc="http://creativecommons.org/ns#"
   xmlns:rdf="http://www.w3.org/1999/02/22-rdf-syntax-ns#"
   xmlns:svg="http://www.w3.org/2000/svg"
   xmlns="http://www.w3.org/2000/svg"
   xmlns:sodipodi="http://sodipodi.sourceforge.net/DTD/sodipodi-0.dtd"
   xmlns:inkscape="http://www.inkscape.org/namespaces/inkscape"
   height="512"
   viewBox="0 0 128 128"
   width="512"
   version="1.1"
   id="svg8"
   sodipodi:docname="location.svg"
   inkscape:version="1.0.2 (394de47547, 2021-03-26)">
  <metadata
     id="metadata14">
    <rdf:RDF>
      <cc:Work
         rdf:about="">
        <dc:format>image/svg+xml</dc:format>
        <dc:type
           rdf:resource="http://purl.org/dc/dcmitype/StillImage" />
      </cc:Work>
    </rdf:RDF>
  </metadata>
  <defs
     id="defs12" />
  <sodipodi:namedview
     pagecolor="#ffffff"
     bordercolor="#666666"
     borderopacity="1"
     objecttolerance="10"
     gridtolerance="10"
     guidetolerance="10"
     inkscape:pageopacity="0"
     inkscape:pageshadow="2"
     inkscape:window-width="1920"
     inkscape:window-height="1016"
     id="namedview10"
     showgrid="false"
     inkscape:zoom="1.6835938"
     inkscape:cx="256"
     inkscape:cy="256"
     inkscape:window-x="0"
     inkscape:window-y="27"
     inkscape:window-maximized="1"
     inkscape:current-layer="svg8"
     inkscape:document-rotation="0" />
  <g
     id="g6"
     style="fill:#b38b4e;fill-opacity:1">
    <path
       d="m78.777 37.021a14.777 14.777 0 1 0 -14.777 14.779 14.795 14.795 0 0 0 14.777-14.779zm-26.054 0a11.277 11.277 0 1 1 11.277 11.279 11.29 11.29 0 0 1 -11.277-11.279z"
       id="path2"
       style="fill:#b38b4e;fill-opacity:1" />
    <path
       d="m123.328 121.069-14.266-37.4a1.751 1.751 0 0 0 -1.635-1.126h-27c.165-.269.329-.53.494-.8 10.389-17.2 15.617-32.246 15.542-44.714a32.464 32.464 0 0 0 -64.928-.011c-.075 12.479 5.153 27.527 15.542 44.725.165.273.329.534.494.8h-27a1.751 1.751 0 0 0 -1.635 1.126l-14.264 37.4a1.748 1.748 0 0 0 1.635 2.374h115.386a1.748 1.748 0 0 0 1.635-2.374zm-88.292-84.048a28.964 28.964 0 1 1 57.928.01c.15 24.858-23.09 55.517-28.964 62.869-5.874-7.349-29.115-38-28.964-62.879zm27.631 66.779a1.75 1.75 0 0 0 2.666 0 185.716 185.716 0 0 0 12.9-17.759h27.987l2.24 5.875-54.691 19.451-19.494-25.329h15.49a185.716 185.716 0 0 0 12.902 17.762zm-8.959 11.3h.01l32.627-11.6 12.655 16.443h-58.9zm-31.93-29.062h8.08l20.442 26.562-20.643 7.342h-20.81zm81.643 33.905-13.609-17.682 19.9-7.077 9.443 24.759z"
       id="path4"
       style="fill:#b38b4e;fill-opacity:1" />
  </g>
</svg>
