<svg height="480pt" viewBox="0 -56 480 480" width="480pt" xmlns="http://www.w3.org/2000/svg"><path d="m344 0h-112c-17.121094-.00390625-32.9375 9.152344-41.464844 24h-12.0625c-14.324218-.011719-27.496094 7.859375-34.273437 20.480469l-31.398438 58.351562c-9.597656 17.65625-4.070312 39.722657 12.71875 50.769531-1.351562 9.890626.417969 19.957032 5.054688 28.796876l21.921875 41.601562h-144.496094c-4.417969 0-8 3.582031-8 8v128c0 4.417969 3.582031 8 8 8h32c4.417969 0 8-3.582031 8-8v-40h176c.613281-.070312 1.214844-.210938 1.792969-.425781 2.058593.277343 4.128906.417969 6.207031.425781h176c39.746094-.042969 71.957031-32.253906 72-72v-112c-.082031-75.074219-60.925781-135.9179688-136-136zm-217.144531 110.398438 31.433593-58.351563c3.992188-7.429687 11.75-12.058594 20.183594-12.046875h3.496094l-26.402344 50.160156-24.863281 47.238282c-7.046875-7.183594-8.605469-18.113282-3.847656-26.984376zm-110.855469 129.601562h16c17.671875 0 32 14.328125 32 32s-14.328125 32-32 32h-16zm16 112h-16v-32h16zm35.679688-48c16.425781-18.171875 16.425781-45.828125 0-64h28.320312v24h16v-24h16v24h16v-24h16v24h13.542969l16 30.398438c.976562 1.839843 2.066406 3.609374 3.273437 5.304687.542969.761719 1.160156 1.457031 1.742188 2.191406.585937.738281 1.089844 1.464844 1.699218 2.144531zm396.320312-56c-.035156 30.914062-25.085938 55.964844-56 56h-176c-2.152344-.027344-4.296875-.269531-6.398438-.71875-.066406 0-.121093-.058594-.1875-.074219-6.769531-1.429687-12.898437-5.019531-17.460937-10.222656-.210937-.242187-.410156-.496094-.617187-.746094-1.386719-1.648437-2.597657-3.4375-3.617188-5.335937l-30.917969-58.628906-28.082031-53.351563c-3.738281-7.136719-4.652344-15.421875-2.550781-23.203125.597656-2.269531 1.445312-4.464844 2.527343-6.550781l57.601563-109.367188 1.375-2.617187c5.496094-10.566406 16.417969-17.191406 28.328125-17.183594h112c66.242188.074219 119.925781 53.757812 120 120zm0 0"/><path d="m320 48c-61.855469 0-112 50.144531-112 112s50.144531 112 112 112 112-50.144531 112-112c-.066406-61.828125-50.171875-111.933594-112-112zm0 208c-53.019531 0-96-42.980469-96-96s42.980469-96 96-96 96 42.980469 96 96c-.058594 52.996094-43.003906 95.941406-96 96zm0 0"/><path d="m32 264h16v16h-16zm0 0"/><path d="m252.183594 128c-3.390625 0-6.410156 2.132812-7.542969 5.328125-6.1875 17.242187-6.1875 36.101563 0 53.34375 1.132813 3.195313 4.152344 5.328125 7.542969 5.328125h135.632812c3.390625 0 6.410156-2.132812 7.542969-5.328125 6.1875-17.242187 6.1875-36.101563 0-53.34375-1.132813-3.195313-4.152344-5.328125-7.542969-5.328125zm129.726562 48h-123.820312c-2.785156-10.484375-2.785156-21.515625 0-32h123.820312c2.785156 10.484375 2.785156 21.515625 0 32zm0 0"/></svg>