<?xml version="1.0" encoding="UTF-8" standalone="no"?>
<svg
   xmlns:dc="http://purl.org/dc/elements/1.1/"
   xmlns:cc="http://creativecommons.org/ns#"
   xmlns:rdf="http://www.w3.org/1999/02/22-rdf-syntax-ns#"
   xmlns:svg="http://www.w3.org/2000/svg"
   xmlns="http://www.w3.org/2000/svg"
   xmlns:sodipodi="http://sodipodi.sourceforge.net/DTD/sodipodi-0.dtd"
   xmlns:inkscape="http://www.inkscape.org/namespaces/inkscape"
   version="1.1"
   id="Layer_1"
   x="0px"
   y="0px"
   viewBox="0 0 210.285 512.568"
   xml:space="preserve"
   width="210.05197"
   height="512"
   sodipodi:docname="scroll.svg"
   inkscape:version="1.0.2 (394de47547, 2021-03-26)"><metadata
   id="metadata9"><rdf:RDF><cc:Work
       rdf:about=""><dc:format>image/svg+xml</dc:format><dc:type
         rdf:resource="http://purl.org/dc/dcmitype/StillImage" /></cc:Work></rdf:RDF></metadata><defs
   id="defs7" /><sodipodi:namedview
   pagecolor="#ffffff"
   bordercolor="#666666"
   borderopacity="1"
   objecttolerance="10"
   gridtolerance="10"
   guidetolerance="10"
   inkscape:pageopacity="0"
   inkscape:pageshadow="2"
   inkscape:window-width="1920"
   inkscape:window-height="1016"
   id="namedview5"
   showgrid="false"
   inkscape:zoom="1.6835938"
   inkscape:cx="105.02599"
   inkscape:cy="232.2408"
   inkscape:window-x="0"
   inkscape:window-y="27"
   inkscape:window-maximized="1"
   inkscape:current-layer="Layer_1" />
<path
   d="m 36.143,255.284 c 0,-38.598 31.402,-70 70,-70 38.598,0 70,31.402 70,70 0,38.598 -31.402,70 -70,70 -38.598,0 -70,-31.402 -70,-70 z m 100,0 c 0,-16.542 -13.458,-30 -30,-30 -16.542,0 -30,13.458 -30,30 0,16.542 13.458,30 30,30 16.542,0 30,-13.458 30,-30 z M 28.286,133.427 105.143,56.569 182.001,133.427 210.285,105.142 105.143,0 0,105.142 Z M 105.143,512.568 207.285,410.427 179.001,382.142 105.143,456 30.286,381.142 2.001,409.427 Z"
   id="path2" />















</svg>
