<?xml version="1.0" encoding="UTF-8" standalone="no"?>
<svg
   xmlns:dc="http://purl.org/dc/elements/1.1/"
   xmlns:cc="http://creativecommons.org/ns#"
   xmlns:rdf="http://www.w3.org/1999/02/22-rdf-syntax-ns#"
   xmlns:svg="http://www.w3.org/2000/svg"
   xmlns="http://www.w3.org/2000/svg"
   xmlns:sodipodi="http://sodipodi.sourceforge.net/DTD/sodipodi-0.dtd"
   xmlns:inkscape="http://www.inkscape.org/namespaces/inkscape"
   version="1.1"
   id="Capa_1"
   x="0px"
   y="0px"
   viewBox="0 0 512 512"
   style="enable-background:new 0 0 512 512;"
   xml:space="preserve"
   sodipodi:docname="truck.svg"
   inkscape:version="1.0.2 (394de47547, 2021-03-26)"><metadata
   id="metadata164"><rdf:RDF><cc:Work
       rdf:about=""><dc:format>image/svg+xml</dc:format><dc:type
         rdf:resource="http://purl.org/dc/dcmitype/StillImage" /></cc:Work></rdf:RDF></metadata><defs
   id="defs162" /><sodipodi:namedview
   pagecolor="#ffffff"
   bordercolor="#666666"
   borderopacity="1"
   objecttolerance="10"
   gridtolerance="10"
   guidetolerance="10"
   inkscape:pageopacity="0"
   inkscape:pageshadow="2"
   inkscape:window-width="1920"
   inkscape:window-height="1016"
   id="namedview160"
   showgrid="false"
   inkscape:zoom="1.6835938"
   inkscape:cx="256"
   inkscape:cy="256"
   inkscape:window-x="0"
   inkscape:window-y="27"
   inkscape:window-maximized="1"
   inkscape:current-layer="Capa_1" />
<g
   id="g55"
   style="fill:#ffffff">
	<g
   id="g53"
   style="fill:#ffffff">
		<path
   d="M119.467,337.067c-28.237,0-51.2,22.963-51.2,51.2c0,28.237,22.963,51.2,51.2,51.2s51.2-22.963,51.2-51.2    C170.667,360.03,147.703,337.067,119.467,337.067z M119.467,422.4c-18.825,0-34.133-15.309-34.133-34.133    c0-18.825,15.309-34.133,34.133-34.133s34.133,15.309,34.133,34.133C153.6,407.091,138.291,422.4,119.467,422.4z"
   id="path51"
   style="fill:#ffffff" />
	</g>
</g>
<g
   id="g61"
   style="fill:#ffffff">
	<g
   id="g59"
   style="fill:#ffffff">
		<path
   d="M409.6,337.067c-28.237,0-51.2,22.963-51.2,51.2c0,28.237,22.963,51.2,51.2,51.2c28.237,0,51.2-22.963,51.2-51.2    C460.8,360.03,437.837,337.067,409.6,337.067z M409.6,422.4c-18.825,0-34.133-15.309-34.133-34.133    c0-18.825,15.309-34.133,34.133-34.133c18.825,0,34.133,15.309,34.133,34.133C443.733,407.091,428.425,422.4,409.6,422.4z"
   id="path57"
   style="fill:#ffffff" />
	</g>
</g>
<g
   id="g67"
   style="fill:#ffffff">
	<g
   id="g65"
   style="fill:#ffffff">
		<path
   d="M510.643,289.784l-76.8-119.467c-1.57-2.441-4.275-3.917-7.177-3.917H332.8c-4.719,0-8.533,3.823-8.533,8.533v213.333    c0,4.719,3.814,8.533,8.533,8.533h34.133v-17.067h-25.6V183.467h80.674l72.926,113.442v82.825h-42.667V396.8h51.2    c4.719,0,8.533-3.814,8.533-8.533V294.4C512,292.77,511.531,291.157,510.643,289.784z"
   id="path63"
   style="fill:#ffffff" />
	</g>
</g>
<g
   id="g73"
   style="fill:#ffffff">
	<g
   id="g71"
   style="fill:#ffffff">
		<path
   d="M375.467,277.333V217.6h68.267v-17.067h-76.8c-4.719,0-8.533,3.823-8.533,8.533v76.8c0,4.719,3.814,8.533,8.533,8.533h128    v-17.067H375.467z"
   id="path69"
   style="fill:#ffffff" />
	</g>
</g>
<g
   id="g79"
   style="fill:#ffffff">
	<g
   id="g77"
   style="fill:#ffffff">
		<path
   d="M332.8,106.667H8.533C3.823,106.667,0,110.49,0,115.2v273.067c0,4.719,3.823,8.533,8.533,8.533H76.8v-17.067H17.067v-256    h307.2v256H162.133V396.8H332.8c4.719,0,8.533-3.814,8.533-8.533V115.2C341.333,110.49,337.519,106.667,332.8,106.667z"
   id="path75"
   style="fill:#ffffff" />
	</g>
</g>
<g
   id="g85"
   style="fill:#ffffff">
	<g
   id="g83"
   style="fill:#ffffff">
		<rect
   x="8.533"
   y="345.6"
   width="51.2"
   height="17.067"
   id="rect81"
   style="fill:#ffffff" />
	</g>
</g>
<g
   id="g91"
   style="fill:#ffffff">
	<g
   id="g89"
   style="fill:#ffffff">
		<rect
   x="179.2"
   y="345.6"
   width="145.067"
   height="17.067"
   id="rect87"
   style="fill:#ffffff" />
	</g>
</g>
<g
   id="g97"
   style="fill:#ffffff">
	<g
   id="g95"
   style="fill:#ffffff">
		<rect
   x="469.333"
   y="345.6"
   width="34.133"
   height="17.067"
   id="rect93"
   style="fill:#ffffff" />
	</g>
</g>
<g
   id="g103"
   style="fill:#ffffff">
	<g
   id="g101"
   style="fill:#ffffff">
		<rect
   x="34.133"
   y="140.8"
   width="298.667"
   height="17.067"
   id="rect99"
   style="fill:#ffffff" />
	</g>
</g>
<g
   id="g109"
   style="fill:#ffffff">
	<g
   id="g107"
   style="fill:#ffffff">
		<rect
   x="110.933"
   y="379.733"
   width="17.067"
   height="17.067"
   id="rect105"
   style="fill:#ffffff" />
	</g>
</g>
<g
   id="g115"
   style="fill:#ffffff">
	<g
   id="g113"
   style="fill:#ffffff">
		<rect
   x="401.067"
   y="379.733"
   width="17.067"
   height="17.067"
   id="rect111"
   style="fill:#ffffff" />
	</g>
</g>
<g
   id="g121"
   style="fill:#ffffff">
	<g
   id="g119"
   style="fill:#ffffff">
		<rect
   x="34.133"
   y="72.533"
   width="119.467"
   height="17.067"
   id="rect117"
   style="fill:#ffffff" />
	</g>
</g>
<g
   id="g127"
   style="fill:#ffffff">
	<g
   id="g125"
   style="fill:#ffffff">
		<rect
   y="72.533"
   width="17.067"
   height="17.067"
   id="rect123"
   style="fill:#ffffff" />
	</g>
</g>
<g
   id="g129"
   style="fill:#ffffff">
</g>
<g
   id="g131"
   style="fill:#ffffff">
</g>
<g
   id="g133"
   style="fill:#ffffff">
</g>
<g
   id="g135"
   style="fill:#ffffff">
</g>
<g
   id="g137"
   style="fill:#ffffff">
</g>
<g
   id="g139"
   style="fill:#ffffff">
</g>
<g
   id="g141"
   style="fill:#ffffff">
</g>
<g
   id="g143"
   style="fill:#ffffff">
</g>
<g
   id="g145"
   style="fill:#ffffff">
</g>
<g
   id="g147"
   style="fill:#ffffff">
</g>
<g
   id="g149"
   style="fill:#ffffff">
</g>
<g
   id="g151"
   style="fill:#ffffff">
</g>
<g
   id="g153"
   style="fill:#ffffff">
</g>
<g
   id="g155"
   style="fill:#ffffff">
</g>
<g
   id="g157"
   style="fill:#ffffff">
</g>
</svg>
