<?xml version="1.0" encoding="UTF-8" standalone="no"?>
<svg
   xmlns:dc="http://purl.org/dc/elements/1.1/"
   xmlns:cc="http://creativecommons.org/ns#"
   xmlns:rdf="http://www.w3.org/1999/02/22-rdf-syntax-ns#"
   xmlns:svg="http://www.w3.org/2000/svg"
   xmlns="http://www.w3.org/2000/svg"
   xmlns:sodipodi="http://sodipodi.sourceforge.net/DTD/sodipodi-0.dtd"
   xmlns:inkscape="http://www.inkscape.org/namespaces/inkscape"
   version="1.1"
   id="Capa_1"
   x="0px"
   y="0px"
   viewBox="0 0 490.66639 256.142"
   xml:space="preserve"
   sodipodi:docname="upArrow.svg"
   width="490.66638"
   height="256.142"
   inkscape:version="1.0.1 (0767f8302a, 2020-10-17)"><metadata
   id="metadata41"><rdf:RDF><cc:Work
       rdf:about=""><dc:format>image/svg+xml</dc:format><dc:type
         rdf:resource="http://purl.org/dc/dcmitype/StillImage" /></cc:Work></rdf:RDF></metadata><defs
   id="defs39" /><sodipodi:namedview
   pagecolor="#ffffff"
   bordercolor="#666666"
   borderopacity="1"
   objecttolerance="10"
   gridtolerance="10"
   guidetolerance="10"
   inkscape:pageopacity="0"
   inkscape:pageshadow="2"
   inkscape:window-width="1920"
   inkscape:window-height="1016"
   id="namedview37"
   showgrid="false"
   inkscape:zoom="1.7567171"
   inkscape:cx="245.34437"
   inkscape:cy="128.07099"
   inkscape:window-x="0"
   inkscape:window-y="27"
   inkscape:window-maximized="1"
   inkscape:current-layer="Capa_1" />

<path
   d="M 245.45299,1.6669339e-5 C 248.28399,-0.00498333 251.00099,1.1150167 253.00499,3.1150167 L 487.672,237.78201 c 4.093,4.237 3.975,10.99 -0.262,15.083 -4.134,3.99201 -10.687,3.99201 -14.82,0 L 245.45399,25.750017 18.338992,252.88601 c -4.093,4.23701 -10.8450003,4.354 -15.0830003,0.262 -4.23700005,-4.093 -4.354,-10.845 -0.262,-15.083 0.086,-0.089 0.173,-0.176 0.262,-0.262 L 237.92199,3.1360167 c 1.996,-2.002 4.705,-3.12900003 7.531,-3.136000030661 z"
   id="path4"
   style="fill:#eff1f3;fill-opacity:1" />
<g
   id="g6"
   transform="translate(3.7499926e-4,-117.27301)">
</g>
<g
   id="g8"
   transform="translate(3.7499926e-4,-117.27301)">
</g>
<g
   id="g10"
   transform="translate(3.7499926e-4,-117.27301)">
</g>
<g
   id="g12"
   transform="translate(3.7499926e-4,-117.27301)">
</g>
<g
   id="g14"
   transform="translate(3.7499926e-4,-117.27301)">
</g>
<g
   id="g16"
   transform="translate(3.7499926e-4,-117.27301)">
</g>
<g
   id="g18"
   transform="translate(3.7499926e-4,-117.27301)">
</g>
<g
   id="g20"
   transform="translate(3.7499926e-4,-117.27301)">
</g>
<g
   id="g22"
   transform="translate(3.7499926e-4,-117.27301)">
</g>
<g
   id="g24"
   transform="translate(3.7499926e-4,-117.27301)">
</g>
<g
   id="g26"
   transform="translate(3.7499926e-4,-117.27301)">
</g>
<g
   id="g28"
   transform="translate(3.7499926e-4,-117.27301)">
</g>
<g
   id="g30"
   transform="translate(3.7499926e-4,-117.27301)">
</g>
<g
   id="g32"
   transform="translate(3.7499926e-4,-117.27301)">
</g>
<g
   id="g34"
   transform="translate(3.7499926e-4,-117.27301)">
</g>
</svg>
