<?xml version="1.0" standalone="no"?>
<!DOCTYPE svg PUBLIC "-//W3C//DTD SVG 20010904//EN"
 "http://www.w3.org/TR/2001/REC-SVG-20010904/DTD/svg10.dtd">
<svg version="1.0" xmlns="http://www.w3.org/2000/svg"
 width="1024.000000pt" height="1024.000000pt" viewBox="0 0 1024.000000 1024.000000"
 preserveAspectRatio="xMidYMid meet">
<metadata>
Created by potrace 1.11, written by Peter Selinger 2001-2013
</metadata>
<g transform="translate(0.000000,1024.000000) scale(0.100000,-0.100000)"
fill="#000000" stroke="none">
<path d="M6241 7759 c-133 -25 -278 -91 -431 -197 -52 -36 -97 -68 -100 -71
-3 -4 -25 -22 -50 -41 -25 -19 -65 -53 -90 -75 -77 -69 -403 -398 -450 -454
-25 -30 -54 -64 -65 -75 -32 -33 -185 -267 -185 -282 0 -8 -4 -14 -10 -14 -5
0 -10 -5 -10 -11 0 -6 -14 -40 -30 -76 -16 -35 -30 -66 -30 -68 0 -2 -5 -16
-12 -32 -6 -15 -12 -32 -14 -38 -1 -5 -12 -37 -24 -70 -12 -33 -23 -67 -25
-75 -2 -8 -12 -44 -23 -80 -11 -36 -41 -141 -67 -235 -80 -289 -105 -379 -116
-415 -5 -19 -12 -42 -13 -50 -2 -8 -5 -22 -9 -30 -3 -8 -17 -58 -31 -110 -34
-120 -30 -106 -46 -167 -8 -29 -16 -54 -19 -54 -16 -4 -1631 -4 -1631 0 0 7
81 314 87 331 3 8 7 20 9 25 1 6 14 55 29 110 15 55 28 110 30 121 2 12 8 31
14 43 7 11 9 21 7 21 -3 0 -1 11 4 25 5 14 12 36 14 48 8 36 67 261 122 462
14 50 26 97 28 105 2 8 9 33 14 55 6 22 13 51 15 65 3 14 10 44 16 67 6 23 14
61 17 85 3 24 10 47 14 52 5 5 6 14 4 20 -5 13 13 30 151 146 49 41 102 87
119 103 l30 27 -44 1 c-25 0 -99 3 -165 5 -217 9 -539 4 -670 -10 -16 -2 -61
-6 -98 -10 -37 -4 -78 -9 -90 -12 -12 -2 -39 -6 -62 -9 -118 -17 -275 -52
-380 -87 -33 -11 -67 -21 -76 -23 -32 -7 -196 -78 -281 -122 -167 -86 -389
-249 -492 -361 -22 -25 -48 -52 -57 -61 -52 -53 -189 -259 -189 -284 0 -7 -4
-17 -8 -23 -20 -22 -67 -160 -88 -259 -27 -126 -38 -382 -19 -480 10 -54 51
-215 57 -220 4 -4 153 41 208 62 8 4 17 7 20 8 3 1 12 4 20 7 8 3 82 28 164
54 81 27 150 54 153 61 3 7 -3 41 -12 75 -55 209 -67 282 -68 438 -1 117 8
209 28 292 9 35 17 68 18 73 3 13 26 72 43 112 8 17 14 34 14 37 0 7 65 109
88 139 41 53 140 140 201 175 55 33 157 77 196 86 6 2 28 8 50 14 53 15 127
26 250 38 66 6 428 14 435 9 4 -3 -3 -42 -17 -87 -45 -153 -95 -332 -134 -483
-22 -82 -42 -159 -45 -170 -3 -11 -7 -27 -8 -35 -1 -9 -5 -21 -10 -28 -4 -6
-5 -12 -2 -12 2 0 0 -15 -5 -32 -9 -32 -99 -383 -103 -403 -1 -5 -5 -19 -9
-30 -3 -11 -8 -31 -11 -45 -11 -58 -77 -314 -84 -327 -7 -11 -178 -196 -250
-270 -14 -14 -18 -23 -10 -24 7 0 24 -3 38 -5 14 -3 45 -7 70 -8 25 -2 52 -4
61 -5 15 -1 0 -67 -92 -401 -5 -19 -11 -39 -12 -45 -2 -5 -13 -43 -26 -83 -13
-40 -24 -78 -25 -85 -2 -7 -6 -19 -9 -27 -3 -8 -18 -53 -33 -100 -70 -221
-183 -465 -268 -579 -37 -49 -171 -170 -212 -191 -27 -14 -52 -29 -55 -33 -3
-5 -10 -9 -15 -9 -5 0 -20 -5 -33 -10 -42 -15 -164 -46 -211 -52 -150 -20
-413 -25 -658 -13 -61 3 -112 3 -112 -1 0 -4 -23 -39 -51 -77 -28 -39 -57 -79
-65 -90 -8 -11 -63 -87 -123 -170 l-109 -150 31 -7 c47 -10 141 -20 229 -23
42 -2 81 -5 85 -8 5 -3 15 -2 22 2 7 5 30 5 51 1 22 -4 42 -5 44 -2 3 2 42 6
88 8 117 4 211 17 303 41 33 8 67 16 75 18 66 14 216 87 293 141 26 19 51 34
56 34 5 0 11 3 13 8 2 4 48 40 103 81 55 41 102 78 105 81 3 4 34 31 70 61
241 200 760 744 760 797 0 5 6 15 14 21 38 32 207 438 242 581 2 8 13 42 25
75 11 33 22 65 23 70 13 52 41 122 50 122 6 0 63 4 126 8 120 8 136 9 315 19
61 4 135 9 166 11 66 6 217 15 339 20 47 2 85 4 85 5 0 2 192 9 403 15 209 6
213 5 207 -14 -3 -11 -8 -28 -10 -38 -3 -19 -93 -376 -100 -403 -13 -45 -38
-137 -41 -150 -2 -8 -10 -40 -19 -70 -9 -30 -18 -66 -21 -79 -3 -13 -18 -72
-34 -130 -59 -219 -184 -706 -195 -761 -2 -8 -8 -35 -15 -60 -7 -25 -14 -56
-17 -70 -2 -13 -11 -56 -20 -95 -8 -38 -17 -79 -18 -90 -2 -11 -7 -31 -10 -45
-16 -70 -17 -167 -2 -196 33 -64 101 -102 177 -98 25 1 101 16 170 34 143 36
156 39 190 45 14 3 56 11 93 20 37 8 82 17 100 20 18 4 50 10 72 15 22 5 56
11 75 14 19 3 46 8 60 11 14 3 39 7 55 10 17 3 53 10 80 15 64 13 81 16 135
25 25 4 54 9 65 12 11 2 37 6 58 9 l38 5 -25 -39 -25 -40 27 -10 c78 -30 258
-62 367 -64 90 -1 268 23 334 47 22 7 42 11 45 8 3 -4 6 0 6 7 0 7 3 10 7 7 3
-4 12 -2 20 4 7 6 13 8 13 4 0 -10 198 97 261 141 64 45 155 115 185 141 11
10 52 45 90 78 38 33 143 134 234 225 169 170 273 280 455 485 39 43 85 94
103 114 18 20 59 67 90 104 l57 68 485 -6 c267 -3 528 -8 580 -10 178 -8 282
-15 290 -20 4 -3 4 -22 0 -42 -9 -40 -15 -83 -25 -168 -13 -108 -16 -132 -25
-180 -5 -27 -12 -70 -15 -95 -3 -25 -8 -58 -10 -73 -2 -15 -7 -47 -10 -70 -3
-23 -8 -53 -10 -67 -2 -14 -7 -50 -10 -80 -3 -30 -13 -95 -21 -145 -15 -91
-27 -162 -39 -245 -16 -105 -13 -194 6 -232 53 -104 143 -119 399 -65 107 23
131 27 167 32 18 3 64 12 104 20 40 9 74 13 77 10 3 -3 11 0 19 6 7 6 13 9 13
6 0 -3 19 -1 43 5 23 5 80 16 127 24 104 18 128 22 160 29 13 2 42 7 64 11 22
3 43 7 46 9 3 1 25 6 50 9 25 3 56 8 70 11 14 3 41 7 60 11 87 14 89 15 122
66 18 28 41 63 50 77 9 14 22 32 28 39 10 11 6 16 -11 14 -4 -1 -44 -4 -90 -7
-46 -4 -100 -8 -119 -10 -73 -8 -258 -18 -330 -18 -181 0 -285 31 -342 103
-45 58 -56 123 -52 310 2 91 6 179 8 195 2 17 7 66 11 110 4 44 9 91 10 105 1
14 6 57 9 95 6 63 10 95 21 175 5 39 14 109 20 175 4 33 8 67 10 75 2 8 7 44
10 80 4 36 9 72 10 81 2 9 6 40 9 70 4 30 11 83 16 119 5 36 12 83 14 105 3
22 7 49 9 60 3 11 8 46 12 79 3 32 8 68 10 80 2 11 6 41 9 66 3 25 8 56 11 69
2 13 7 49 10 80 4 31 8 63 10 71 3 8 7 31 10 50 2 19 16 114 30 210 15 96 28
189 31 205 2 17 6 41 9 55 3 14 7 43 10 65 3 22 7 51 9 65 3 14 15 84 26 155
12 72 23 141 26 155 2 14 7 41 10 60 3 19 7 46 10 60 2 14 7 41 10 60 2 19 7
46 10 60 2 14 6 36 9 50 7 43 75 424 80 450 3 14 7 36 10 50 3 14 7 36 10 50
15 73 16 90 10 109 -3 11 -14 23 -24 26 -10 3 -29 14 -41 25 -13 11 -26 20
-31 20 -4 0 -25 -19 -46 -42 -163 -177 -214 -201 -414 -194 -125 5 -139 6
-249 26 -60 11 -80 14 -150 24 -19 3 -53 8 -75 11 -22 4 -52 8 -67 11 -16 2
-40 6 -55 8 -16 3 -71 9 -123 16 -52 6 -113 13 -135 17 -60 9 -343 8 -400 -1
-27 -4 -57 -9 -65 -10 -25 -4 -133 -36 -155 -46 -11 -5 -60 -26 -110 -46 -49
-21 -92 -41 -95 -44 -3 -3 -37 -24 -76 -47 -64 -38 -196 -131 -254 -180 -82
-69 -244 -227 -318 -311 -32 -36 -70 -79 -85 -96 -66 -74 -263 -396 -242 -396
3 0 -3 -17 -14 -37 -19 -38 -54 -169 -68 -253 -9 -54 -10 -338 -1 -395 11 -71
54 -227 78 -280 5 -11 10 -25 12 -32 2 -7 49 13 123 53 66 36 167 91 225 122
58 31 123 67 145 79 22 13 48 26 58 29 22 8 22 17 -9 105 -14 41 -27 81 -29
89 -2 8 -13 44 -24 80 -18 59 -41 152 -56 226 -25 125 -26 311 -2 404 24 90
77 195 132 258 45 51 162 142 183 142 5 0 15 7 22 15 7 9 15 13 18 11 2 -3 16
1 31 8 36 19 150 56 186 61 17 2 44 6 60 9 97 16 293 22 420 11 28 -2 77 -6
110 -9 34 -3 74 -7 90 -10 17 -3 53 -8 80 -11 28 -3 66 -8 85 -10 19 -3 67 -7
105 -10 160 -13 183 -15 240 -20 50 -4 116 -9 193 -14 18 -1 15 -15 -13 -47
-14 -16 -29 -33 -33 -39 -4 -5 -68 -89 -142 -185 -74 -96 -138 -176 -142 -178
-4 -2 -8 -10 -8 -17 0 -7 -4 -15 -8 -17 -5 -1 -31 -32 -58 -68 -26 -36 -51
-67 -54 -70 -3 -3 -19 -23 -35 -45 -16 -22 -35 -47 -41 -55 -77 -97 -106 -134
-144 -185 -25 -33 -47 -62 -50 -65 -3 -3 -25 -32 -50 -65 -25 -33 -47 -62 -51
-65 -3 -3 -18 -23 -35 -45 -16 -22 -34 -46 -41 -55 -7 -8 -35 -44 -62 -80 -28
-36 -54 -69 -59 -75 -4 -5 -43 -57 -87 -115 -44 -58 -82 -107 -85 -110 -3 -3
-28 -34 -55 -70 -28 -36 -55 -72 -62 -80 -69 -87 -189 -237 -195 -245 -5 -5
-17 -20 -27 -33 -11 -13 -34 -42 -53 -64 -29 -37 -120 -146 -182 -218 -62 -74
-263 -307 -276 -320 -8 -9 -49 -54 -90 -100 -300 -334 -514 -498 -746 -569
-110 -35 -191 -45 -349 -45 -120 0 -183 7 -259 29 -27 8 -57 15 -65 15 -10 -1
-30 -30 -51 -73 -19 -40 -38 -74 -41 -77 -4 -3 -16 -24 -28 -48 -12 -23 -27
-43 -34 -43 -6 -1 -25 -3 -42 -4 -138 -13 -236 -18 -395 -19 -163 -1 -189 1
-220 18 -50 27 -96 80 -107 123 -15 62 -8 212 17 343 7 36 14 74 16 85 5 31
85 354 159 640 57 221 88 344 99 390 2 6 8 30 15 55 7 25 15 52 16 60 2 8 15
60 30 115 14 55 28 107 30 115 2 8 18 69 35 135 18 66 33 125 35 130 7 31 17
72 22 85 3 8 7 20 9 25 1 6 14 53 28 105 14 52 28 103 31 114 2 10 11 42 19
70 8 28 22 76 30 106 16 60 80 288 101 360 29 103 56 196 58 205 1 6 6 16 10
23 5 6 6 12 3 12 -3 0 1 18 9 40 8 22 14 41 14 43 0 1 2 9 4 17 3 8 14 47 26
85 11 39 32 111 47 160 15 50 28 92 29 95 8 34 71 215 99 285 103 261 211 380
386 423 35 9 297 7 340 -2 19 -4 51 -11 70 -16 19 -5 37 -9 40 -9 3 0 28 -8
56 -19 l51 -20 99 160 c54 89 106 173 114 187 8 14 17 28 20 31 3 3 10 15 17
27 12 22 13 22 -52 39 -123 32 -310 42 -414 23z m2895 -1641 c-9 -57 -17 -112
-20 -123 -7 -41 -16 -91 -21 -130 -3 -22 -10 -65 -15 -95 -5 -30 -11 -71 -14
-90 -3 -19 -8 -46 -11 -60 -3 -14 -7 -41 -10 -60 -3 -19 -7 -46 -9 -60 -2 -14
-10 -59 -16 -100 -6 -41 -14 -86 -16 -100 -2 -14 -7 -41 -10 -60 -2 -19 -9
-57 -14 -85 -5 -27 -12 -68 -15 -90 -3 -23 -7 -50 -9 -62 -3 -12 -8 -43 -12
-70 -7 -49 -10 -69 -18 -113 -3 -14 -8 -43 -11 -65 -3 -22 -12 -80 -21 -130
-9 -49 -17 -101 -18 -115 -3 -25 -10 -64 -27 -155 l-9 -50 -578 1 c-317 1
-578 2 -580 3 -5 2 221 296 230 299 4 2 8 9 8 16 0 6 8 19 18 28 9 9 22 23 27
30 6 7 66 87 134 178 69 91 128 167 131 170 3 3 17 21 30 40 13 19 29 40 35
46 23 26 45 55 45 59 0 3 7 13 15 22 16 20 390 509 590 773 72 94 138 181 148
193 10 12 26 35 35 50 24 40 25 21 8 -95z"/>
</g>
</svg>
